<svg width="26" height="28" viewBox="0 0 26 28" fill="none" xmlns="http://www.w3.org/2000/svg">
<path d="M11.6537 1.90364C12.0403 0.549236 13.9597 0.549239 14.3463 1.90363L15.5204 6.0177C15.9054 7.36699 17.2916 8.16733 18.6527 7.82616L22.8026 6.78593C24.1688 6.44347 25.1286 8.10576 24.1489 9.1177L21.173 12.1915C20.1971 13.1997 20.1971 14.8003 21.173 15.8085L24.1489 18.8823C25.1286 19.8942 24.1688 21.5565 22.8026 21.2141L18.6527 20.1738C17.2916 19.8327 15.9054 20.633 15.5204 21.9823L14.3463 26.0964C13.9597 27.4508 12.0403 27.4508 11.6537 26.0964L10.4796 21.9823C10.0946 20.633 8.70835 19.8327 7.3473 20.1738L3.19737 21.2141C1.83116 21.5565 0.871436 19.8942 1.85112 18.8823L4.82695 15.8085C5.80293 14.8003 5.80293 13.1997 4.82695 12.1915L1.85112 9.11771C0.871436 8.10576 1.83116 6.44347 3.19736 6.78593L7.3473 7.82616C8.70835 8.16733 10.0946 7.36699 10.4796 6.0177L11.6537 1.90364Z" stroke="#DA6836" stroke-width="1.2"/>
</svg>
