<svg width="18" height="22" viewBox="0 0 18 22" fill="none" xmlns="http://www.w3.org/2000/svg">
<path fill-rule="evenodd" clip-rule="evenodd" d="M8.40141 0.53145C7.06422 0.749786 5.94176 1.61665 5.36202 2.87869C5.08098 3.49051 4.97026 4.0672 4.96899 4.92645L4.96795 5.63472H3.59471C2.15053 5.63472 1.93167 5.67161 1.83514 5.93144C1.76097 6.13126 -0.0316672 20.3308 0.000425774 20.4644C0.0175379 20.5354 0.234942 20.7975 0.483647 21.0468L0.935749 21.5H8.97866H17.0216L17.3433 21.205C17.7194 20.8601 18 20.5114 18 20.3889C18 20.2069 16.1712 6.01781 16.1353 5.92099C16.0431 5.67256 15.8111 5.63472 14.3796 5.63472H13.0064L13.0054 4.92645C13.0041 4.0723 12.8932 3.48894 12.6197 2.89789C12.1144 1.80577 11.2821 1.04808 10.1992 0.694383C9.68348 0.525972 8.88067 0.453193 8.40141 0.53145ZM9.98706 1.6655C10.476 1.84097 10.8741 2.11603 11.2429 2.53318C11.8302 3.19745 12.0321 3.80058 12.0321 4.89069V5.63472H8.98718H5.94231L5.94322 4.9894C5.94371 4.63451 5.98549 4.16258 6.03609 3.94072C6.29777 2.79288 7.18218 1.86678 8.29502 1.57522C8.75668 1.45428 9.51047 1.49451 9.98706 1.6655ZM15.2838 6.81517C15.3402 7.10402 16.9647 19.9003 16.9647 20.0562C16.9647 20.136 16.9052 20.2669 16.8324 20.347L16.6999 20.4927H8.98797H1.27598L1.1221 20.3195L0.968147 20.1464L1.83697 13.41C2.31477 9.70492 2.7078 6.6664 2.71024 6.65778C2.71274 6.64915 5.53515 6.64204 8.98237 6.64204H15.2499L15.2838 6.81517Z" fill="black"/>
</svg>
