<svg width="42" height="59" viewBox="0 0 42 59" fill="none" xmlns="http://www.w3.org/2000/svg">
<path d="M30 0.999998C26.1917 0.999998 22.4206 1.73717 18.9022 3.16943C15.3837 4.60169 12.1868 6.70098 9.4939 9.34745C6.801 11.9939 4.66488 15.1357 3.20749 18.5935C1.75011 22.0513 1 25.7573 1 29.5C1 33.2427 1.75011 36.9487 3.20749 40.4065C4.66488 43.8643 6.801 47.0061 9.4939 49.6525C12.1868 52.299 15.3837 54.3983 18.9022 55.8306C22.4206 57.2628 26.1917 58 30 58" stroke="#DA6836" stroke-width="1.2"/>
<path d="M17.5757 29.5757C17.3414 29.8101 17.3414 30.1899 17.5757 30.4243L21.3941 34.2426C21.6284 34.477 22.0083 34.477 22.2426 34.2426C22.477 34.0083 22.477 33.6284 22.2426 33.3941L18.8485 30L22.2426 26.6059C22.477 26.3716 22.477 25.9917 22.2426 25.7574C22.0083 25.523 21.6284 25.523 21.3941 25.7574L17.5757 29.5757ZM42 29.4L18 29.4V30.6L42 30.6V29.4Z" fill="#DA6836"/>
</svg>
