<svg width="42" height="59" viewBox="0 0 42 59" fill="none" xmlns="http://www.w3.org/2000/svg">
<path d="M12 58C15.8083 58 19.5794 57.2628 23.0978 55.8306C26.6163 54.3983 29.8132 52.299 32.5061 49.6525C35.199 47.0061 37.3351 43.8643 38.7925 40.4065C40.2499 36.9487 41 33.2427 41 29.5C41 25.7573 40.2499 22.0513 38.7925 18.5935C37.3351 15.1357 35.199 11.9939 32.5061 9.34746C29.8132 6.70099 26.6163 4.60169 23.0978 3.16943C19.5794 1.73717 15.8083 1 12 1" stroke="#DA6836" stroke-width="1.2"/>
<path d="M24.4243 30.4243C24.6586 30.1899 24.6586 29.8101 24.4243 29.5757L20.6059 25.7574C20.3716 25.523 19.9917 25.523 19.7574 25.7574C19.523 25.9917 19.523 26.3716 19.7574 26.6059L23.1515 30L19.7574 33.3941C19.523 33.6284 19.523 34.0083 19.7574 34.2426C19.9917 34.477 20.3716 34.477 20.6059 34.2426L24.4243 30.4243ZM0 30.6H24V29.4H0L0 30.6Z" fill="#DA6836"/>
</svg>
