<svg width="17" height="12" viewBox="0 0 17 12" fill="none" xmlns="http://www.w3.org/2000/svg">
<path fill-rule="evenodd" clip-rule="evenodd" d="M14.6133 0.0411716C14.4945 0.0654189 14.2852 0.136714 14.1481 0.199676C13.9065 0.310597 13.7876 0.419254 10.2605 3.75083C8.2593 5.64102 6.57414 7.21022 6.51566 7.23795C6.39245 7.29632 6.25036 7.30239 6.11742 7.25497C6.06598 7.2366 5.37344 6.60963 4.57846 5.86167C3.22707 4.59021 3.11682 4.4942 2.88383 4.38576C2.55886 4.23449 2.30048 4.17486 1.97006 4.17486C0.834455 4.17486 -0.0715078 5.08082 0.00445156 6.14044C0.0267476 6.45116 0.119786 6.74096 0.27855 6.99406C0.371256 7.14188 0.959227 7.7157 2.77986 9.43528C5.06465 11.5933 5.16992 11.6879 5.40916 11.7977C6.00713 12.0724 6.5849 12.0674 7.20348 11.7823L7.48592 11.6522L11.965 7.41819C14.4285 5.0895 16.502 3.11345 16.5728 3.02696C17.0451 2.44987 17.1313 1.71679 16.8039 1.06148C16.4174 0.288143 15.4992 -0.139567 14.6133 0.0411716Z" fill="white"/>
</svg>
